<?xml version="1.0" standalone="no"?>
<!DOCTYPE svg PUBLIC "-//W3C//DTD SVG 20010904//EN"
 "http://www.w3.org/TR/2001/REC-SVG-20010904/DTD/svg10.dtd">
<svg version="1.0" xmlns="http://www.w3.org/2000/svg"
 width="114.000000pt" height="114.000000pt" viewBox="0 0 114.000000 114.000000"
 preserveAspectRatio="xMidYMid meet">

<g transform="translate(0.000000,114.000000) scale(0.100000,-0.100000)"
stroke="none">
<!-- 猫咪主体部分 -->
<path d="M614 1041 c-10 -10 -29 -30 -41 -45 -13 -15 -33 -26 -47 -26 -14 0
-37 -5 -51 -10 -23 -9 -32 -6 -57 15 -60 51 -125 13 -143 -82 -4 -23 -23 -55
-50 -85 -24 -27 -54 -71 -66 -98 -21 -47 -25 -50 -61 -50 -27 0 -38 -4 -38
-15 0 -10 11 -15 35 -15 31 0 35 -3 35 -25 0 -20 -6 -27 -30 -32 -36 -7 -35
-27 1 -28 20 0 25 -6 30 -40 3 -22 9 -50 13 -63 l8 -23 -34 21 c-92 56 -139
-1 -82 -98 26 -44 26 -47 14 -112 -15 -79 -5 -110 37 -110 18 0 41 16 79 55
l54 55 65 -40 c105 -64 172 -83 300 -83 135 -1 212 22 320 94 75 50 205 180
205 205 0 7 -20 28 -45 46 -41 30 -45 36 -38 63 4 17 8 68 8 115 0 57 4 88 13
93 20 13 14 27 -11 27 -16 0 -28 9 -38 28 -7 15 -15 30 -16 33 -2 3 9 11 23
18 18 8 24 15 17 22 -7 7 -19 6 -36 -2 -23 -10 -30 -8 -64 18 -21 17 -60 42
-88 56 -34 17 -56 37 -70 62 -37 71 -108 98 -151 56z" />

<!-- 猫咪细节部分 -->
<path d="M706 993 c13 -15 24 -34 23 -42 -3 -32 2 -38 39 -49 44 -14 142 -69
142 -80 0 -5 -27 -21 -60 -37 -33 -16 -60 -32 -60 -36 0 -19 21 -16 81 12
l64 30 18 -22 c9 -12 16 -24 14 -26 -2 -2 -37 -9 -77 -16 -46 -7 -75 -17 -78
-26 -4 -11 4 -13 42 -8 25 4 66 10 90 13 l44 6 7 -51 c7 -54 -1 -127 -16
-137 -5 -3 -9 4 -9 15 0 32 -48 80 -91 91 -41 11 -73 7 -98 -14 -8 -6 -57
-12 -115 -12 -72 -1 -119 -7 -166 -23 -48 -15 -79 -19 -116 -15 -85 10 -149
-39 -149 -115 0 -19 -6 -36 -13 -39 -16 -5 -51 73 -52 114 0 30 2 32 51 38
67 9 62 32 -5 28 -42 -3 -47 -2 -44 15 3 15 14 19 61 21 71 4 74 25 4 30 -28
2 -47 8 -47 15 0 20 68 115 94 132 17 11 27 32 35 74 14 70 30 88 63 70 21
-11 21 -13 4 -23 -49 -30 -51 -33 -37 -50 13 -15 16 -15 38 -1 45 30 108 48
188 54 63 5 80 9 83 23 2 10 -5 19 -18 23 -20 6 -21 8 -4 26 23 26 40 24 70
-8z" fill="#FFD93D"/>

<!-- 小鱼部分 -->
<path d="M898 574 c54 -37 3 -77 -63 -50 -33 14 -46 42 -28 59 12 13 68 7 91
-9z" fill="#FFD93D"/>

<path d="M773 517 c35 -38 86 -54 136 -44 27 6 65 -11 119 -53 l22 -18 -50
-56 c-58 -63 -77 -72 -123 -57 -38 13 -55 37 -71 100 -8 36 -16 46 -31 46
-17 0 -20 -6 -18 -38 4 -64 36 -123 79 -145 l38 -19 -65 -31 c-112 -54 -254
-64 -375 -27 -26 8 -82 35 -126 60 -93 54 -105 53 -165 -13 -45 -51 -62 -51
-44 -1 17 50 13 89 -15 136 -14 25 -23 47 -20 50 3 3 29 -11 58 -31 65 -44
95 -46 132 -7 20 20 38 29 60 29 60 0 126 49 126 93 0 31 148 70 242 64 51
-3 62 -7 91 -38z" fill="#89CFF0"/>

<path d="M389 521 c32 -21 -25 -81 -78 -81 -42 0 -38 50 7 75 31 16 51 18 71
6z" fill="#FFD93D"/>

<!-- 眼睛和其他细节 -->
<path d="M646 804 c-20 -20 -20 -38 0 -59 20 -20 42 -16 60 10 12 18 11 24 -2
43 -18 26 -37 28 -58 6z" fill="#000000"/>

<path d="M376 738 c-13 -19 -14 -25 -2 -43 18 -26 40 -30 60 -10 20 21 20 39
0 59 -21 22 -40 20 -58 -6z" fill="#000000"/>

<path d="M517 733 c-24 -24 22 -55 48 -33 25 20 18 40 -13 40 -16 0 -32 -3
-35 -7z" fill="#000000"/>

<path d="M882 428 c-30 -30 1 -73 36 -51 23 14 25 29 7 47 -20 19 -27 20 -43
4z" fill="#000000"/>

<path d="M573 390 c-28 -11 -36 -40 -23 -76 27 -69 78 -83 143 -39 32 23 36
30 34 63 -1 20 -6 43 -10 50 -9 14 -110 16 -144 2z m117 -50 c0 -14 -59 -42
-76 -36 -8 3 -14 15 -14 26 0 17 6 20 45 20 25 0 45 -4 45 -10z" fill="#000000"/>
</g>
</svg>
